<svg xmlns="http://www.w3.org/2000/svg" viewBox="0 0 24 24" fill="#00FF00">
  <path d="M12 .5C5.73.5.5 5.73.5 12c0 5.08 3.29 9.38 7.86 10.91.58.11.79-.25.79-.56
           0-.28-.01-1.02-.01-2-3.2.7-3.88-1.54-3.88-1.54-.53-1.34-1.3-1.7-1.3-1.7-1.06-.73.08-.71.08-.71
           1.17.08 1.79 1.2 1.79 1.2 1.04 1.78 2.74 1.26 3.41.96.11-.75.41-1.26.74-1.55-2.56-.29-5.26-1.28-5.26-5.71
           0-1.26.45-2.29 1.19-3.1-.12-.29-.52-1.45.11-3.02 0 0 .97-.31 3.18 1.18a11.1 11.1 0 0 1 5.8 0c2.2-1.49
           3.17-1.18 3.17-1.18.63 1.57.23 2.73.11 3.02.74.81 1.19 1.84 1.19 3.1
           0 4.44-2.7 5.42-5.28 5.7.42.37.79 1.1.79 2.22 0 1.6-.01 2.89-.01 3.28 0 .31.21.68.8.56A10.52 10.52 0 0 0 23.5 12c0-6.27-5.23-11.5-11.5-11.5z"/>
</svg>
